<svg width="59" height="50" viewBox="0 0 59 50" fill="none" xmlns="http://www.w3.org/2000/svg">
<path d="M39.0499 18.8535L26.0291 10.173C25.7022 9.95486 25.3222 9.82961 24.9297 9.81059C24.5371 9.79158 24.1468 9.8795 23.8004 10.065C23.4539 10.2505 23.1643 10.5265 22.9625 10.8637C22.7607 11.2009 22.6543 11.5866 22.6545 11.9796V29.3407C22.6543 29.7337 22.7607 30.1194 22.9625 30.4566C23.1643 30.7938 23.4539 31.0699 23.8004 31.2553C24.1468 31.4408 24.5371 31.5287 24.9297 31.5097C25.3222 31.4907 25.7022 31.3655 26.0291 31.1474L39.0499 22.4668C39.3476 22.2687 39.5917 22.0001 39.7605 21.6849C39.9294 21.3697 40.0177 21.0177 40.0177 20.6602C40.0177 20.3026 39.9294 19.9506 39.7605 19.6354C39.5917 19.3202 39.3476 19.0516 39.0499 18.8535ZM26.9948 25.2853V16.0486L33.9338 20.6602L26.9948 25.2853ZM53.0365 1.12891H5.2934C4.14229 1.12891 3.03832 1.58618 2.22436 2.40014C1.4104 3.2141 0.953125 4.31807 0.953125 5.46918V35.8511C0.953125 37.0022 1.4104 38.1062 2.22436 38.9202C3.03832 39.7341 4.14229 40.1914 5.2934 40.1914H53.0365C54.1876 40.1914 55.2915 39.7341 56.1055 38.9202C56.9195 38.1062 57.3767 37.0022 57.3767 35.8511V5.46918C57.3767 4.31807 56.9195 3.2141 56.1055 2.40014C55.2915 1.58618 54.1876 1.12891 53.0365 1.12891ZM53.0365 35.8511H5.2934V5.46918H53.0365V35.8511ZM57.3767 46.7018C57.3767 47.2774 57.1481 47.8294 56.7411 48.2363C56.3341 48.6433 55.7822 48.872 55.2066 48.872H3.12326C2.54771 48.872 1.99572 48.6433 1.58874 48.2363C1.18176 47.8294 0.953125 47.2774 0.953125 46.7018C0.953125 46.1263 1.18176 45.5743 1.58874 45.1673C1.99572 44.7603 2.54771 44.5317 3.12326 44.5317H55.2066C55.7822 44.5317 56.3341 44.7603 56.7411 45.1673C57.1481 45.5743 57.3767 46.1263 57.3767 46.7018Z" fill="white"/>
</svg>
