<svg width="50" height="44" viewBox="0 0 50 44" fill="none" xmlns="http://www.w3.org/2000/svg">
<g clip-path="url(#clip0_70_14165)">
<path d="M41.2203 39.1816C41.9433 39.1816 42.6367 39.4222 43.148 39.8505C43.6592 40.2788 43.9464 40.8597 43.9464 41.4654C43.9464 42.0711 43.6592 42.6519 43.148 43.0802C42.6367 43.5085 41.9433 43.7491 41.2203 43.7491H8.50733C7.78433 43.7491 7.09094 43.5085 6.5797 43.0802C6.06846 42.6519 5.78125 42.0711 5.78125 41.4654C5.78125 40.8597 6.06846 40.2788 6.5797 39.8505C7.09094 39.4222 7.78433 39.1816 8.50733 39.1816H41.2203Z" fill="white"/>
<path d="M43.9455 0.0332034C45.321 0.0328387 46.6458 0.46804 47.6544 1.25157C48.663 2.03509 49.2808 3.10903 49.384 4.2581L49.3976 4.60066V32.0054C49.3981 33.1577 48.8786 34.2676 47.9433 35.1126C47.008 35.9575 45.726 36.4751 44.3544 36.5615L43.9455 36.5729H5.78029C4.40477 36.5733 3.07992 36.1381 2.07132 35.3545C1.06272 34.571 0.44492 33.4971 0.341756 32.348L0.328125 32.0054V4.60066C0.32769 3.44835 0.847189 2.33848 1.78248 1.49354C2.71778 0.648601 3.99974 0.131046 5.37138 0.0446222L5.78029 0.0332034H43.9455ZM43.9455 4.60066H5.78029V32.0054H8.31555L30.9639 13.0322C31.6028 12.4974 32.4691 12.197 33.3723 12.197C34.2756 12.197 35.1419 12.4974 35.7808 13.0322L43.9455 19.8697V4.60066ZM33.371 17.4718L16.0222 32.0054H43.9455V26.3304L33.371 17.4718ZM15.3216 9.16813C16.4061 9.16813 17.4462 9.52904 18.213 10.1715C18.9799 10.8139 19.4107 11.6852 19.4107 12.5937C19.4107 13.5022 18.9799 14.3736 18.213 15.016C17.4462 15.6584 16.4061 16.0193 15.3216 16.0193C14.2371 16.0193 13.197 15.6584 12.4301 15.016C11.6633 14.3736 11.2325 13.5022 11.2325 12.5937C11.2325 11.6852 11.6633 10.8139 12.4301 10.1715C13.197 9.52904 14.2371 9.16813 15.3216 9.16813Z" fill="white"/>
</g>
<defs>
<clipPath id="clip0_70_14165">
<rect width="49.7238" height="44" fill="white"/>
</clipPath>
</defs>
</svg>
